<svg xmlns="http://www.w3.org/2000/svg"
     x="0px"
     y="0px"
     width="48"
     height="48"
     fill="#888"
     viewBox="0 0 64 64">
  <path d="M 16 13 C 12.691 13 10 15.691 10 19 L 10 45 C 10 48.309 12.691 51 16 51 L 48 51 C 51.309 51 54 48.309 54 45 L 54 19 C 54 15.691 51.309 13 48 13 L 16 13 z M 17.5 16 C 18.328 16 19 16.672 19 17.5 C 19 18.328 18.328 19 17.5 19 C 16.672 19 16 18.328 16 17.5 C 16 16.672 16.672 16 17.5 16 z M 22.5 16 C 23.328 16 24 16.672 24 17.5 C 24 18.328 23.328 19 22.5 19 C 21.672 19 21 18.328 21 17.5 C 21 16.672 21.672 16 22.5 16 z M 28.5 16 L 46.5 16 C 47.328 16 48 16.672 48 17.5 C 48 18.328 47.328 19 46.5 19 L 28.5 19 C 27.672 19 27 18.328 27 17.5 C 27 16.672 27.672 16 28.5 16 z M 16 22 L 48 22 C 49.104 22 50 22.895 50 24 L 50 25 L 50 45 C 50 46.103 49.103 47 48 47 L 16 47 C 14.897 47 14 46.103 14 45 L 14 25 L 14 24 C 14 22.895 14.896 22 16 22 z M 32 25 C 27.037 25 23 29.038 23 34 C 23 38.962 27.037 43 32 43 C 36.963 43 41 38.962 41 34 C 41 29.038 36.963 25 32 25 z M 32 29 C 34.757 29 37 31.243 37 34 C 37 34.642706 36.868368 35.253423 36.646484 35.818359 L 30.181641 29.353516 C 30.746577 29.131632 31.357294 29 32 29 z M 27.353516 32.181641 L 33.818359 38.646484 C 33.253423 38.868368 32.642706 39 32 39 C 29.243 39 27 36.757 27 34 C 27 33.357294 27.131632 32.746577 27.353516 32.181641 z"></path>
</svg>
