<svg xmlns="http://www.w3.org/2000/svg"
     x="0px"
     y="0px"
     width="48"
     height="48"
     fill="#888"
     viewBox="0 0 48 48">
  <path d="M 10.5 6 C 10.3105 6 10.124082 6.0104805 9.9394531 6.0292969 C 9.571481 6.0667987 9.2141905 6.1413291 8.8710938 6.2480469 C 7.1472189 6.7842455 5.7842455 8.1472189 5.2480469 9.8710938 C 5.1413291 10.21419 5.0667987 10.571481 5.0292969 10.939453 C 5.0292305 10.940097 5.0293631 10.940762 5.0292969 10.941406 C 5.0106094 11.125412 5 11.311158 5 11.5 L 5 13.5 L 5 36.5 C 5 39.519774 7.4802259 42 10.5 42 L 37.5 42 C 40.519774 42 43 39.519774 43 36.5 L 43 13.5 L 43 11.5 C 43 11.310603 42.989737 11.124126 42.970703 10.939453 C 42.933201 10.571481 42.858671 10.21419 42.751953 9.8710938 C 42.215754 8.1472189 40.852781 6.7842455 39.128906 6.2480469 C 38.78581 6.1413291 38.428519 6.0667987 38.060547 6.0292969 C 38.059905 6.0292315 38.059235 6.029362 38.058594 6.0292969 C 37.874547 6.0103939 37.688736 6 37.5 6 L 10.5 6 z M 10.5 9 C 11.328 9 12 9.672 12 10.5 C 12 11.328 11.328 12 10.5 12 C 9.672 12 9 11.328 9 10.5 C 9 9.672 9.672 9 10.5 9 z M 15.5 9 C 16.328 9 17 9.672 17 10.5 C 17 11.328 16.328 12 15.5 12 C 14.672 12 14 11.328 14 10.5 C 14 9.672 14.672 9 15.5 9 z M 21.5 9 L 37.5 9 C 38.328 9 39 9.672 39 10.5 C 39 11.328 38.328 12 37.5 12 L 21.5 12 C 20.672 12 20 11.328 20 10.5 C 20 9.672 20.672 9 21.5 9 z M 8 15 L 40 15 L 40 36.5 C 40 37.898226 38.898226 39 37.5 39 L 10.5 39 C 9.1017741 39 8 37.898226 8 36.5 L 8 15 z M 11.25 21 C 10.56 21 10 21.56 10 22.25 L 10 27.75 C 10 28.44 10.56 29 11.25 29 L 15.5 29 L 15.5 31.75 C 15.5 32.44 16.06 33 16.75 33 C 17.44 33 18 32.44 18 31.75 L 18 22.25 C 18 21.56 17.44 21 16.75 21 C 16.06 21 15.5 21.56 15.5 22.25 L 15.5 26.5 L 12.5 26.5 L 12.5 22.25 C 12.5 21.56 11.94 21 11.25 21 z M 24 21 C 21.519 21 19.5 23.019 19.5 25.5 L 19.5 28.5 C 19.5 30.981 21.519 33 24 33 C 26.481 33 28.5 30.981 28.5 28.5 L 28.5 25.5 C 28.5 23.019 26.481 21 24 21 z M 31.25 21 C 30.56 21 30 21.56 30 22.25 L 30 27.75 C 30 28.44 30.56 29 31.25 29 L 35.5 29 L 35.5 31.75 C 35.5 32.44 36.06 33 36.75 33 C 37.44 33 38 32.44 38 31.75 L 38 22.25 C 38 21.56 37.44 21 36.75 21 C 36.06 21 35.5 21.56 35.5 22.25 L 35.5 26.5 L 32.5 26.5 L 32.5 22.25 C 32.5 21.56 31.94 21 31.25 21 z M 24 23.5 C 25.103 23.5 26 24.397 26 25.5 L 26 28.5 C 26 29.603 25.103 30.5 24 30.5 C 22.897 30.5 22 29.603 22 28.5 L 22 25.5 C 22 24.397 22.897 23.5 24 23.5 z"></path>
</svg>
